<svg xmlns="http://www.w3.org/2000/svg" viewBox="0 0 1200 630" width="1200" height="630"><rect width="1200" height="630" fill="#0a0a0a"/><defs><pattern id="f3" width="4" height="4" patternUnits="userSpaceOnUse"><path fill="#f5f5f5" fill-opacity=".16" d="M0 0h1v1h-1zM2 0h1v1h-1zM2 2h1v1h-1z"/></pattern><pattern id="m1" width="4" height="4" patternUnits="userSpaceOnUse"><path fill="#f5f5f5" fill-opacity=".42" d="M0 0h1v1h-1z"/></pattern><pattern id="m2" width="4" height="4" patternUnits="userSpaceOnUse"><path fill="#f5f5f5" fill-opacity=".42" d="M0 0h1v1h-1zM2 2h1v1h-1z"/></pattern><pattern id="m3" width="4" height="4" patternUnits="userSpaceOnUse"><path fill="#f5f5f5" fill-opacity=".42" d="M0 0h1v1h-1zM2 0h1v1h-1zM2 2h1v1h-1z"/></pattern><pattern id="m4" width="4" height="4" patternUnits="userSpaceOnUse"><path fill="#f5f5f5" fill-opacity=".42" d="M0 0h1v1h-1zM2 0h1v1h-1zM0 2h1v1h-1zM2 2h1v1h-1z"/></pattern><pattern id="m5" width="4" height="4" patternUnits="userSpaceOnUse"><path fill="#f5f5f5" fill-opacity=".42" d="M0 0h1v1h-1zM2 0h1v1h-1zM1 1h1v1h-1zM0 2h1v1h-1zM2 2h1v1h-1z"/></pattern><pattern id="m7" width="4" height="4" patternUnits="userSpaceOnUse"><path fill="#f5f5f5" fill-opacity=".42" d="M0 0h1v1h-1zM2 0h1v1h-1zM1 1h1v1h-1zM3 1h1v1h-1zM0 2h1v1h-1zM2 2h1v1h-1zM3 3h1v1h-1z"/></pattern><pattern id="m8" width="4" height="4" patternUnits="userSpaceOnUse"><path fill="#f5f5f5" fill-opacity=".42" d="M0 0h1v1h-1zM2 0h1v1h-1zM1 1h1v1h-1zM3 1h1v1h-1zM0 2h1v1h-1zM2 2h1v1h-1zM1 3h1v1h-1zM3 3h1v1h-1z"/></pattern></defs><g transform="scale(10)" shape-rendering="crispEdges"><rect x="0" y="0" width="120" height="4" fill="url(#m8)"/><rect x="0" y="4" width="120" height="4" fill="url(#m7)"/><rect x="0" y="8" width="120" height="4" fill="url(#m5)"/><rect x="0" y="12" width="120" height="4" fill="url(#m4)"/><rect x="0" y="16" width="120" height="4" fill="url(#m3)"/><rect x="0" y="20" width="120" height="4" fill="url(#m2)"/><rect x="0" y="24" width="120" height="4" fill="url(#m1)"/><rect x="0" y="28" width="120" height="4" fill="url(#m1)"/><path fill="#f5f5f5" fill-opacity=".16" d="M12 37h3v8h-3zM52 37h8v8h-8zM109 37h9v8h-9zM24 38h6v7h-6zM18 39h3v6h-3zM1 41h8v4h-8zM43 41h6v4h-6zM95 41h5v4h-5zM84 42h8v3h-8zM33 43h7v2h-7zM63 43h9v2h-9zM75 43h6v2h-6zM103 43h3v2h-3z"/><path fill="#f5f5f5" fill-opacity=".42" d="M11 36h1v9h-1zM15 36h1v9h-1zM51 37h1v8h-1zM60 37h1v8h-1zM108 37h1v8h-1zM118 37h1v8h-1zM23 38h1v7h-1zM30 38h1v7h-1zM17 39h1v6h-1zM21 39h1v6h-1zM0 40h1v5h-1zM9 40h1v5h-1zM94 40h1v5h-1zM100 40h1v5h-1zM42 41h1v4h-1zM49 41h1v4h-1zM32 42h1v3h-1zM40 42h1v3h-1zM83 42h1v3h-1zM92 42h1v3h-1zM62 43h1v2h-1zM72 43h1v2h-1zM74 43h1v2h-1zM81 43h1v2h-1zM102 43h1v2h-1zM106 43h1v2h-1z"/><path fill="#f5f5f5" d="M113 31h1v1h-1zM55 31h2v2h-2zM112 32h1v1h-1zM114 32h1v1h-1zM54 33h1v1h-1zM57 33h1v1h-1zM111 33h1v1h-1zM115 33h1v1h-1zM26 33h2v2h-2zM53 34h1v1h-1zM58 34h1v1h-1zM110 34h1v1h-1zM116 34h1v1h-1zM25 35h1v1h-1zM28 35h1v1h-1zM52 35h1v1h-1zM59 35h1v1h-1zM109 35h1v1h-1zM117 35h1v1h-1zM12 36h3v1h-3zM19 36h1v1h-1zM24 36h1v1h-1zM29 36h1v1h-1zM51 36h10v1h-10zM108 36h11v1h-11zM45 36h2v2h-2zM87 36h2v2h-2zM18 37h1v1h-1zM20 37h1v1h-1zM23 37h8v1h-8zM67 37h1v1h-1zM17 38h5v1h-5zM44 38h1v1h-1zM47 38h1v1h-1zM66 38h1v1h-1zM68 38h1v1h-1zM86 38h1v1h-1zM89 38h1v1h-1zM77 38h2v2h-2zM43 39h1v1h-1zM48 39h1v1h-1zM65 39h1v1h-1zM69 39h1v1h-1zM85 39h1v1h-1zM90 39h1v1h-1zM1 40h8v1h-8zM42 40h8v1h-8zM64 40h1v1h-1zM70 40h1v1h-1zM76 40h1v1h-1zM79 40h1v1h-1zM84 40h1v1h-1zM91 40h1v1h-1zM95 40h5v1h-5zM104 40h1v1h-1zM63 41h1v1h-1zM71 41h1v1h-1zM75 41h1v1h-1zM80 41h1v1h-1zM83 41h10v1h-10zM103 41h1v1h-1zM105 41h1v1h-1zM33 42h7v1h-7zM62 42h11v1h-11zM74 42h8v1h-8zM102 42h5v1h-5zM0 45h120v1h-120z"/><rect x="0" y="46" width="120" height="17" fill="url(#f3)"/><path fill="#f5f5f5" fill-opacity=".16" d="M82 50h13v1h-13zM66 53h12v1h-12zM20 57h10v1h-10zM74 58h11v1h-11z"/><path fill="#f5f5f5" fill-opacity=".42" d="M84 49h9v1h-9zM68 52h8v1h-8zM22 56h6v1h-6zM76 57h7v1h-7z"/><path fill="none" stroke="#f5f5f5" stroke-opacity=".5" stroke-width=".3" shape-rendering="geometricPrecision" d="M26.03 17.37l-1.61 5.74M-2.32 10.73l-1.56 5.58M56.98 24.34l-0.93 3.31M95.14 21.36l-1.04 3.7M113.08 14.16l-1.02 3.66M-8.03 31.5l-1.27 4.54M76.11 10.22l-1.65 5.89M110.5 30.37l-1.19 4.24M114.83 14.06l-0.94 3.37M51.35 15.63l-1 3.56M25.19 36.93l-0.77 2.76M33.16 29.02l-1.44 5.15M125.89 25.48l-1.34 4.8M65.61 24.68l-1.39 4.96M129.36 24.39l-1.23 4.38M25.91 27.55l-1.5 5.36M100.8 34.75l-1.35 4.81M51.66 24.3l-0.93 3.31M36.94 23.09l-1.1 3.93M114.56 15.73l-1.16 4.16M113.49 12.46l-1.62 5.79M70.16 13.72l-1.54 5.49M7.49 31.46l-1.42 5.07M113.29 1.03l-1.23 4.41M3.23 13.25l-0.99 3.53M16.64 8.03l-0.7 2.5M25.75 38.4l-1.22 4.35M75.33 0.31l-1.04 3.7M105.02 35.89l-0.87 3.11M67.68 25.7l-1.17 4.18M92.99 1.08l-1.67 5.97M21.78 23.87l-0.83 2.96M10.92 14.92l-1.49 5.33M108.29 20.22l-1.63 5.83M65.9 21.75l-1.55 5.52M31.69 2.7l-1.42 5.07M57.26 18.48l-1.67 5.95M10.28 21.52l-0.6 2.15M32.29 3.57l-1.63 5.82M108.06 13.55l-1.61 5.75M-8.14 3.1l-1.24 4.42M128.88 25.46l-1.44 5.16M27.68 3.68l-1.52 5.42M113.77 4.53l-0.9 3.21M23.84 5.75l-1.14 4.07M129.53 1.65l-1.64 5.87M100.57 29.96l-0.79 2.81M27.46 5.38l-0.71 2.53M118.45 32.72l-1.36 4.86M39.47 32.68l-1.28 4.59M120.49 39.08l-0.88 3.13M55.2 10.92l-1.14 4.08M108.6 23.78l-1.25 4.45M104.14 20.48l-0.98 3.49M114.19 0.76l-1.01 3.62M84.36 20.08l-1.2 4.29M124.92 32.07l-0.59 2.12M125.47 30.5l-1.44 5.13M13.14 17.38l-0.77 2.76M92.35 3.29l-1.27 4.55M7.55 4.27l-1.25 4.45M122.49 41.33l-0.64 2.3M-4.39 19.39l-1.09 3.91M42.35 16.21l-1.41 5.05M55.85 32.49l-1.15 4.1M109.12 34.23l-1.45 5.19M115.83 7.65l-1.65 5.88M37.84 23.11l-1.13 4.02M126.7 33.29l-1.05 3.76M26.16 17.35l-0.6 2.16M-8.16 12.52l-0.98 3.52M73.16 14.27l-1.19 4.24M125.38 11.55l-1.51 5.4M-0.3 21.99l-1.16 4.16M100.32 27.53l-1.15 4.12M58.72 29.25l-0.57 2.05M-5.38 31.43l-1.66 5.92M43.2 10.58l-0.91 3.25M123.33 35.88l-1.19 4.24M57.55 8.76l-1.34 4.79M75.53 38.46l-1.13 4.05M110.52 14.59l-0.9 3.23M51.76 15.16l-0.65 2.31M44.65 13.51l-1.03 3.68M30 10.63l-1.11 3.95M52.08 41.97l-1.02 3.63M79.12 39.39l-0.78 2.77M122.8 40.77l-0.77 2.74M75.46 21.01l-1.46 5.22M-2.95 11.38l-1.06 3.77M91.85 10.43l-0.66 2.37M96.85 8.8l-0.65 2.31M36.81 13.59l-0.91 3.25M102.03 11.92l-0.69 2.46M36.73 24.18l-1.32 4.73M79.94 9.93l-0.97 3.48M48.99 26.61l-0.61 2.16M70.11 41.93l-0.63 2.26M28.83 16.33l-0.8 2.86M17.44 15l-1.46 5.22M35.33 39.33l-1.52 5.41M94.09 6.76l-0.72 2.56M120.33 40.78l-1.26 4.5M46.38 22.76l-0.91 3.25M72.49 28.92l-0.62 2.2M99.75 32.22l-0.99 3.55M58.53 33.77l-0.84 2.99M126.23 34.52l-0.57 2.03M42.21 3.05l-1.17 4.16M96.4 41.65l-1.25 4.46M95.6 20.71l-1.57 5.62M104.13 22.85l-0.79 2.82M113.55 19.5l-0.8 2.84M83.25 13.79l-0.75 2.67M74.14 22.77l-0.64 2.27M26.18 32.43l-0.95 3.39M60.5 6.24l-0.97 3.46M74.98 19.88l-1.22 4.35M116.85 8.52l-1.25 4.45"/><path fill="none" stroke="#38d4f5" stroke-width=".4" shape-rendering="geometricPrecision" d="M70.25 34.11l-0.62 2.21M96 22.5l-1.4 5"/><path fill="#f5f5f5" fill-opacity=".16" d="M5 6h6v1h-6zM8 60h1v1h-1zM10 60h1v1h-1zM14 60h1v1h-1zM16 60h1v1h-1zM18 60h1v1h-1zM20 60h1v1h-1zM24 60h1v1h-1zM26 60h1v1h-1zM28 60h1v1h-1zM30 60h1v1h-1zM34 60h1v1h-1zM36 60h1v1h-1zM38 60h1v1h-1zM40 60h1v1h-1zM44 60h1v1h-1zM46 60h1v1h-1zM48 60h1v1h-1zM50 60h1v1h-1zM54 60h1v1h-1zM56 60h1v1h-1zM58 60h1v1h-1zM60 60h1v1h-1zM64 60h1v1h-1zM66 60h1v1h-1zM68 60h1v1h-1zM70 60h1v1h-1zM74 60h1v1h-1zM76 60h1v1h-1zM78 60h1v1h-1zM80 60h1v1h-1zM84 60h1v1h-1zM86 60h1v1h-1zM88 60h1v1h-1zM90 60h1v1h-1zM94 60h1v1h-1zM96 60h1v1h-1zM98 60h1v1h-1zM100 60h1v1h-1zM104 60h1v1h-1zM106 60h1v1h-1zM108 60h1v1h-1zM110 60h1v1h-1z"/><path fill="#f5f5f5" fill-opacity=".42" d="M2 2h4v1h-4zM114 2h4v1h-4zM5 4h12v1h-12zM2 3h1v3h-1zM117 3h1v3h-1zM2 57h1v3h-1zM117 57h1v3h-1zM2 60h4v1h-4zM12 60h1v1h-1zM22 60h1v1h-1zM32 60h1v1h-1zM42 60h1v1h-1zM52 60h1v1h-1zM62 60h1v1h-1zM72 60h1v1h-1zM82 60h1v1h-1zM92 60h1v1h-1zM102 60h1v1h-1zM114 60h4v1h-4z"/></g></svg>
